<?xml version="1.0" encoding="utf-8"?>
<!-- Generator: Adobe Illustrator 25.4.1, SVG Export Plug-In . SVG Version: 6.00 Build 0)  -->
<svg version="1.1" id="Layer_1" xmlns="http://www.w3.org/2000/svg" xmlns:xlink="http://www.w3.org/1999/xlink" x="0px" y="0px"
	 viewBox="0 0 69.3 106" style="enable-background:new 0 0 69.3 106;" xml:space="preserve">
<style type="text/css">
	.st0{enable-background:new    ;}
	.st1{fill:#FFFFFF;}
</style>
<g transform="translate(-77.344 -554.668)">
	<g class="st0">
		<path class="st1" d="M82.8,576.8h11v21.4c3.3-4.3,8-6.4,12.9-6.4c10.7,0,18.6,8.3,18.6,22.1c0,14-8,22-18.6,22
			c-5,0-9.6-2.3-12.9-6.4v5.4h-11V576.8z M103.3,625.9c6.4,0,10.7-4.9,10.7-12.2c0-7.3-4.3-12.2-10.7-12.2c-3.6,0-7.6,2.1-9.5,4.9
			v14.8C95.7,623.9,99.7,625.9,103.3,625.9z"/>
	</g>
	<rect x="135.4" y="566.8" class="st1" width="11.2" height="80"/>
</g>
</svg>
